<svg xmlns="http://www.w3.org/2000/svg" xmlns:xlink="http://www.w3.org/1999/xlink" version="1.1" x="0px" y="0px" viewBox="0 0 52 65" enable-background="new 0 0 52 52" xml:space="preserve"><g><g><path fill="#000000" d="M11.7069683,4.4518762c5.6071758-0.0394983,11.2190781-0.1473012,16.8262386-0.1185279    c6.7467384,0.0346212,12.4901848,5.1047029,13.1006279,11.9780512c0.4760551,5.3602028,0.1670418,10.8982582,0.1099968,16.2740116    c-0.0300903,2.835701-0.0803871,5.671154-0.1504211,8.5061455c-0.0970116,3.9271202,0.1946526,5.768959-4.2568741,6.3164253    c-5.4620323,0.6717415-11.3366394,0.1134911-16.843895,0.1686249c-2.0461216,0.0204849-6.994771,0.9537277-8.9173555,0.0892754    c-2.6366453-1.1855164-1.6000443-5.9238586-1.5810804-8.2734871c0.0265675-3.2917252-0.4951143-35.0117493,1.026825-35.0553665    c1.6053257-0.0460081,1.6119642-2.5461984,0-2.5C5.874001,1.9845401,7.7295413,10.2338581,7.7025609,13.5767689    c-0.0719948,8.9203053-0.14399,17.8406105-0.2159848,26.7609158c-0.0511713,6.3401794-0.9112344,9.7691536,6.0703449,9.8083572    c4.6214161,0.0259514,9.2501221-0.0926056,13.8714428-0.1388702c4.0301685-0.0403442,9.0729523,0.6421852,13.0247993-0.1886444    c5.134182-1.0794067,3.6244278-7.5295982,3.7043114-11.5620918c0.1527328-7.7098255,1.0381851-16.148016-0.2246056-23.7867546    C43.0662575,9.2274656,39.056694,4.7043414,34.1746216,2.584326c-2.6708279-1.1597928-5.5859203-0.7513685-8.4457874-0.731223    c-4.673954,0.0329243-9.3479099,0.0658487-14.0218658,0.098773C10.0989056,1.9632035,10.0952635,4.4632292,11.7069683,4.4518762    L11.7069683,4.4518762z"/></g><g><path fill="#000000" d="M32.138298,4.6008215c-0.0417442,1.649158-0.0430832,3.2977929,0.0161819,4.9466047    c0.0411797,1.1456375-0.0466537,2.5105295,0.8825874,3.3541288c0.8808708,0.7996902,2.2877769,0.912859,3.4028091,1.0650759    c1.5663567,0.213829,3.1180191,0.2278471,4.6907082,0.0819912c1.5885391-0.1473255,1.6039505-2.6487551,0-2.5    c-1.0373077,0.0962029-2.0747185,0.1417055-3.1157951,0.0779915c-0.7653847-0.0468426-2.7302628-0.0092144-3.2081718-0.6688604    c-0.425499-0.5873079-0.1801987-2.2423906-0.1912727-2.9558954c-0.017601-1.134109-0.0057487-2.2672033,0.022953-3.4010363    C34.6790352,2.9914677,32.1790123,2.9923179,32.138298,4.6008215L32.138298,4.6008215z"/></g><g><path fill="#000000" d="M28.9531059,17.4686203c-1.2023888,2.3469524-1.9005013,4.8128223-2.7163754,7.3099022    c-1.0501614,3.2141438-2.8305874,5.9938297-4.2382221,9.0424957c-0.6699448,1.4509735,1.4842453,2.7224884,2.1586761,1.2617989    c1.1899128-2.5771217,2.7637043-4.9599838,3.7897644-7.6138802c1.1235561-2.9060631,1.735281-5.9481602,3.1648331-8.7385197    C31.8440342,17.3011303,29.687706,16.0347481,28.9531059,17.4686203L28.9531059,17.4686203z"/></g><g><path fill="#000000" d="M16.3962727,21.39715c-0.7829428,1.4140682-1.6569395,2.7564907-2.6682444,4.0186749    c-0.4308701,0.537756-0.5075493,1.2336807,0,1.767767c0.9991961,1.0514393,2.1934376,2.051548,2.7940264,3.3923187    c0.6565514,1.465704,2.8115616,0.1957169,2.1586761-1.2617989c-0.6871262-1.5339584-2.0450993-2.6988544-3.1849356-3.8982868    c0,0.5892544,0,1.1785107,0,1.767767c1.1460085-1.4303036,2.1708136-2.9202175,3.0591536-4.5246429    C19.3348999,21.2502823,17.1765976,19.9878101,16.3962727,21.39715L16.3962727,21.39715z"/></g><g><path fill="#000000" d="M33.8877029,22.6813087c1.2231522,0.9721107,2.9729385,2.2219372,3.6534119,3.6765766    c0-0.420599,0-0.841198,0-1.261797c-0.8443413,1.4923801-2.7138939,2.8148746-3.9916115,3.926157    c-1.2161674,1.0577469,0.5582695,2.8197117,1.767765,1.767767c0.9833374-0.8552475,1.9412308-1.7370415,2.8575287-2.6640491    c0.5916443-0.5985565,1.5796585-1.337656,1.6733284-2.2328262c0.0948677-0.9066067-0.6963882-1.6447163-1.2497826-2.2554321    c-0.9016304-0.9950275-1.8923531-1.8892517-2.9428711-2.7241631    C34.4085884,19.9225693,32.6280899,21.6802158,33.8877029,22.6813087L33.8877029,22.6813087z"/></g></g><text x="0" y="67" fill="#000000" font-size="5px" font-weight="bold" font-family="'Helvetica Neue', Helvetica, Arial-Unicode, Arial, Sans-serif">Created by Dinosoft Labs</text><text x="0" y="72" fill="#000000" font-size="5px" font-weight="bold" font-family="'Helvetica Neue', Helvetica, Arial-Unicode, Arial, Sans-serif">from the Noun Project</text></svg>